<svg width="28" height="28" viewBox="0 0 28 28" fill="none" xmlns="http://www.w3.org/2000/svg">
<path d="M4.48614 6.06375C4.12534 6.15705 3.85474 6.31699 3.57985 6.60133C3.30066 6.89011 3.12886 7.20554 3.05154 7.59207C2.98282 7.92972 2.98282 20.0763 3.05154 20.405C3.21046 21.1648 3.81179 21.7867 4.54198 21.9467C4.86412 22.0178 23.1359 22.0178 23.458 21.9467C24.1882 21.7867 24.7938 21.1559 24.9485 20.405C25.0172 20.0674 25.0172 7.92083 24.9485 7.59207C24.7895 6.82791 24.1925 6.21036 23.458 6.05042C23.1101 5.97489 4.77821 5.98822 4.48614 6.06375ZM18.6173 11.6483C16.3237 14.0163 14.3995 15.9889 14.335 16.0245C14.1847 16.1044 13.8153 16.1044 13.665 16.0245C13.6005 15.9889 11.6763 14.0163 9.38266 11.6483L5.21632 7.33438H14H22.7837L18.6173 11.6483ZM7.07185 16.873L4.29285 19.752V13.9986V8.24515L7.07185 11.1241L9.85513 13.9986L7.07185 16.873ZM23.7071 14.0074V19.752L20.9282 16.8775L18.1449 13.9986L20.9153 11.133C22.4401 9.55577 23.69 8.26737 23.6943 8.26737C23.7029 8.26737 23.7071 10.8531 23.7071 14.0074ZM11.7622 16.0111C12.6857 16.9574 12.8059 17.0641 13.1152 17.224L13.4588 17.3973H13.9957C14.5326 17.3973 14.5412 17.3973 14.8762 17.2285C15.1898 17.073 15.2886 16.9841 16.2421 16.0111L17.2686 14.9582L20.0262 17.8105L22.7837 20.6627H14H5.21632L7.96525 17.8193C9.47716 16.2555 10.7228 14.976 10.7314 14.976C10.7442 14.976 11.2081 15.4425 11.7622 16.0111Z" fill="black"/>
</svg>
