<svg width="28" height="28" viewBox="0 0 28 28" fill="none" xmlns="http://www.w3.org/2000/svg">
<g clip-path="url(#clip0_52_230)">
<path d="M6.26919 7.71056C5.6645 7.83009 5.15122 8.3504 5.03521 8.96915C4.98599 9.22931 4.98599 18.7707 5.03521 19.0309C5.15474 19.6637 5.6645 20.1734 6.29731 20.293C6.55747 20.3422 21.4426 20.3422 21.7028 20.293C22.3356 20.1734 22.8454 19.6637 22.9649 19.0309C23.0141 18.7707 23.0141 9.22931 22.9649 8.96915C22.8454 8.33634 22.3356 7.82657 21.7028 7.70704C21.4672 7.66486 6.49771 7.66486 6.26919 7.71056ZM18.0958 11.8063C15.9864 13.9051 14.9422 14.9211 14.8086 15.002C14.3165 15.3008 13.6836 15.3008 13.1915 15.002C13.0579 14.9211 12.0137 13.9051 9.90435 11.8063L6.8106 8.73009H14H21.1895L18.0958 11.8063ZM9.20122 12.5902L10.6075 14L8.84966 15.7613C7.88286 16.7281 6.85981 17.7442 6.57505 18.0149L6.05474 18.507V14V9.49298L6.92661 10.3367C7.40474 10.8008 8.42778 11.8168 9.20122 12.5902ZM21.9383 16.257L21.9278 18.5176L19.6602 16.257L17.3926 14L19.6602 11.743L21.9278 9.48595L21.9383 11.743C21.9418 12.984 21.9418 15.016 21.9383 16.257ZM11.7325 15.1285C12.3688 15.7684 12.7379 16.025 13.2618 16.1867C13.4833 16.2535 13.6028 16.2676 14 16.2676C14.5415 16.2676 14.8227 16.2008 15.2305 15.9793C15.5329 15.8176 15.6911 15.684 16.2043 15.1848L16.6333 14.7629L17.47 15.575C17.9305 16.0215 18.9536 17.034 19.7481 17.8285L21.1895 19.2734H14L6.8106 19.2699L9.07114 17.0234C10.3157 15.7859 11.3422 14.7734 11.3563 14.7734C11.3704 14.7734 11.5391 14.9317 11.7325 15.1285Z" fill="black"/>
</g>
<defs>
<clipPath id="clip0_52_230">
<rect width="18" height="18" fill="white" transform="translate(5 5)"/>
</clipPath>
</defs>
</svg>
