<svg width="28" height="28" viewBox="0 0 28 28" fill="none" xmlns="http://www.w3.org/2000/svg">
<path d="M6.73189 5.07794C5.92505 5.29357 5.23079 6.16547 5.06192 7.18268C4.97936 7.67488 4.97936 20.3361 5.06192 20.8236C5.21578 21.7424 5.80871 22.5627 6.53675 22.8721L6.78818 22.9799L13.8884 22.994C21.679 23.0081 21.2625 23.0221 21.7503 22.7268C22.2795 22.4127 22.7261 21.7752 22.9062 21.0815L23 20.7299V14.0032V7.27643L22.9137 6.93424C22.6848 6.02953 22.0168 5.27013 21.2737 5.07325C20.891 4.97481 7.10716 4.97481 6.73189 5.07794ZM21.0748 6.54985C21.3113 6.63423 21.5589 6.87799 21.6828 7.15924C21.7879 7.38894 21.7991 7.46394 21.8104 7.88582L21.8216 8.35458L17.9188 11.4812L14.0159 14.6125L10.1094 11.4812L6.20275 8.35458L6.21401 7.88582C6.22527 7.46394 6.23653 7.38894 6.3416 7.15924C6.46169 6.88736 6.71312 6.63423 6.93454 6.55454C7.10341 6.4936 20.8985 6.48891 21.0748 6.54985ZM10.0268 13.1922L13.8058 16.2298H14.0122H14.2223L18.0014 13.1922C20.0804 11.5234 21.7879 10.1593 21.7991 10.1593C21.8104 10.1593 21.8141 12.5078 21.8104 15.3719L21.7991 20.5893L21.7166 20.7814C21.6115 21.0299 21.4389 21.2455 21.24 21.3768L21.0861 21.4799L14.091 21.494C9.40759 21.4987 7.05087 21.4893 6.95705 21.4565C6.71688 21.3768 6.4692 21.1283 6.3416 20.8471L6.22527 20.5893L6.21401 15.3719C6.21026 12.5078 6.21401 10.1593 6.22527 10.1593C6.24028 10.1593 7.94777 11.5234 10.0268 13.1922Z" fill="black"/>
</svg>
