<svg width="28" height="28" viewBox="0 0 28 28" fill="none" xmlns="http://www.w3.org/2000/svg">
<path d="M5.35103 6.06375C5.02304 6.15705 4.77704 6.31699 4.52714 6.60133C4.27333 6.89011 4.11714 7.20554 4.04686 7.59207C3.98438 7.92972 3.98438 20.0763 4.04686 20.405C4.19133 21.1648 4.73799 21.7867 5.4018 21.9467C5.69465 22.0178 22.3053 22.0178 22.5982 21.9467C23.262 21.7867 23.8126 21.1559 23.9531 20.405C24.0156 20.0674 24.0156 7.92083 23.9531 7.59207C23.8087 6.82791 23.2659 6.21036 22.5982 6.05042C22.2819 5.97489 5.61656 5.98822 5.35103 6.06375ZM18.1976 11.6483C16.1125 14.0163 14.3631 15.9889 14.3046 16.0245C14.1679 16.1044 13.8321 16.1044 13.6954 16.0245C13.6369 15.9889 11.8875 14.0163 9.80242 11.6483L6.01484 7.33438H14H21.9852L18.1976 11.6483ZM7.70168 16.873L5.17532 19.752V13.9986V8.24515L7.70168 11.1241L10.2319 13.9986L7.70168 16.873ZM22.8247 14.0074V19.752L20.2983 16.8775L17.7681 13.9986L20.2866 11.133C21.6728 9.55577 22.8091 8.26737 22.813 8.26737C22.8208 8.26737 22.8247 10.8531 22.8247 14.0074ZM11.9656 16.0111C12.8052 16.9574 12.9145 17.0641 13.1956 17.224L13.508 17.3973H13.9961C14.4842 17.3973 14.492 17.3973 14.7966 17.2285C15.0816 17.073 15.1714 16.9841 16.0383 16.0111L16.9715 14.9582L19.4783 17.8105L21.9852 20.6627H14H6.01484L8.51386 17.8193C9.88832 16.2555 11.0207 14.976 11.0285 14.976C11.0402 14.976 11.4619 15.4425 11.9656 16.0111Z" fill="black"/>
</svg>
