<svg width="32" height="32" viewBox="0 0 32 32" fill="none" xmlns="http://www.w3.org/2000/svg">
<path d="M4.79857 6.1064C3.80883 6.51359 3.7197 8.14234 4.65784 8.70013L4.90176 8.84515H16H27.0981L27.3421 8.70013C28.1019 8.24832 28.2286 7.06022 27.5907 6.37414C27.2154 5.97253 28.1348 6.00042 15.9812 6.00042C5.49748 6.006 5.03779 6.006 4.79857 6.1064Z" fill="black"/>
<path d="M4.86897 14.6427C4.58752 14.732 4.33892 14.9718 4.15598 15.3177C4.03402 15.5575 4.01526 15.6356 4.01526 16.0093C4.01526 16.3719 4.03402 16.4723 4.14191 16.6898C4.28732 16.9854 4.4984 17.2141 4.74232 17.348C4.89242 17.4317 5.93375 17.4373 16 17.4373C26.0662 17.4373 27.1076 17.4317 27.2577 17.348C27.5016 17.2141 27.7127 16.9854 27.8581 16.6898C27.966 16.4723 27.9847 16.3719 27.9847 16.0093C27.9847 15.6356 27.966 15.5575 27.844 15.3177C27.6564 14.9607 27.3702 14.7041 27.07 14.626C26.6948 14.5312 5.16917 14.5479 4.86897 14.6427Z" fill="black"/>
<path d="M4.65789 23.2999C3.898 23.7517 3.77135 24.9398 4.40929 25.6259C4.78454 26.0275 3.86986 25.9996 16 25.9996C28.1301 25.9996 27.2155 26.0275 27.5907 25.6259C28.2333 24.9342 28.0926 23.7126 27.3327 23.2887L27.0935 23.1549H15.9953H4.90181L4.65789 23.2999Z" fill="black"/>
</svg>
