<svg width="28" height="28" viewBox="0 0 28 28" fill="none" xmlns="http://www.w3.org/2000/svg">
<path d="M9.2065 5.04806C7.35333 5.34418 5.85764 6.59032 5.27005 8.31766C5.00707 9.09084 5.0194 8.80296 5.00296 13.7464C4.99475 16.9379 5.00296 18.3609 5.03584 18.6323C5.27416 20.5571 6.56439 22.1528 8.38058 22.7532C9.14897 23.0041 9.04625 23 13.9894 23C17.7533 23 18.5545 22.9918 18.8668 22.9383C20.9501 22.6011 22.5937 20.956 22.9306 18.8708C23.0252 18.2992 23.021 9.65017 22.9306 9.11552C22.7499 8.09557 22.2732 7.17844 21.5377 6.44227C20.8433 5.74722 20.0708 5.32772 19.0476 5.08508C18.7641 5.01516 18.3861 5.01105 14.1373 5.00282C10.5378 4.99459 9.46537 5.00282 9.2065 5.04806ZM17.6999 6.59032C18.7025 6.68492 19.5407 7.07973 20.2433 7.77889C20.9542 8.49039 21.3405 9.33349 21.4309 10.3699C21.4884 11.0074 21.4596 17.2093 21.398 17.707C21.3405 18.1635 21.2583 18.476 21.098 18.8791C20.646 20.0183 19.553 20.9807 18.3696 21.2932C17.8313 21.4331 17.4944 21.4413 13.7675 21.4289L10.0694 21.4166L9.67904 21.3056C9.46537 21.248 9.1613 21.1411 9.00516 21.0711C8.03543 20.6311 7.19308 19.7345 6.84381 18.768C6.57261 18.0277 6.58494 18.2169 6.5685 14.3633C6.55618 12.0726 6.56439 10.6825 6.59316 10.3699C6.68356 9.40752 7.02871 8.60143 7.64918 7.9105C8.29019 7.19489 9.30512 6.68492 10.2666 6.59443C10.7761 6.54508 17.1821 6.54097 17.6999 6.59032Z" fill="black"/>
<path d="M18.5342 8.07912C18.4684 8.1038 18.3369 8.17783 18.2465 8.24363C17.5809 8.72482 17.6384 9.71598 18.3534 10.1067C18.5342 10.2054 18.6246 10.226 18.8424 10.226C19.1505 10.2218 19.3395 10.1519 19.5614 9.95863C20.0134 9.55969 20.034 8.71659 19.5984 8.30943C19.3354 8.06267 18.867 7.96397 18.5342 8.07912Z" fill="black"/>
<path d="M13.2333 9.40342C12.2759 9.58849 11.5157 9.9792 10.8377 10.6372C10.1145 11.3364 9.69541 12.089 9.49407 13.0514C9.00099 15.3833 10.4474 17.7892 12.7525 18.4555C14.8112 19.0559 17.0793 18.0195 18.0778 16.0166C18.3655 15.445 18.5545 14.6265 18.5545 13.9521C18.5545 11.8546 17.1328 10.0121 15.1111 9.48156C14.618 9.35407 13.6935 9.31294 13.2333 9.40342ZM14.8358 11.0732C15.674 11.3364 16.3479 11.9204 16.7095 12.6977C16.9068 13.1254 16.993 13.5243 16.993 14.0261C16.993 15.3257 16.163 16.4567 14.8851 16.9009C14.655 16.9831 14.4742 17.0078 14.0921 17.0243C13.4675 17.053 13.1059 16.979 12.6046 16.7281C11.9883 16.4156 11.5116 15.9344 11.2199 15.338C10.9898 14.8527 10.9322 14.5813 10.9322 13.9521C10.9363 13.438 10.9446 13.3722 11.0637 13.0349C11.2404 12.5332 11.413 12.2576 11.7951 11.871C12.2471 11.4145 12.7279 11.1431 13.336 11.0115C13.7223 10.9251 14.4619 10.9539 14.8358 11.0732Z" fill="black"/>
</svg>
