<svg width="28" height="28" viewBox="0 0 28 28" fill="none" xmlns="http://www.w3.org/2000/svg">
<path d="M7 8.25663V9.51325L7.72886 9.56386C10.0418 9.71988 12.0725 10.4747 13.9305 11.8663C14.5456 12.3301 15.6157 13.3886 16.0707 13.9873C17.52 15.8976 18.3121 18.0566 18.4427 20.4602L18.4722 21H19.7361H21L20.9747 20.3337C20.8483 17.0867 19.5044 13.8819 17.2546 11.4657C15.3039 9.36566 12.8393 7.95301 10.0334 7.31626C9.21186 7.13072 8.11225 7 7.39181 7H7V8.25663Z" fill="black"/>
<path d="M7.01685 12.0982C7.00843 12.1066 7 12.6801 7 13.3675V14.6199L7.43395 14.6452C8.97171 14.7422 10.362 15.3789 11.4911 16.5048C12.616 17.6349 13.2522 19.0265 13.3491 20.5657L13.3744 21L14.6383 20.9916L15.9022 20.9789L15.8938 20.5994C15.8811 20.0892 15.7884 19.4313 15.6368 18.8114C15.207 17.0488 14.1622 15.3705 12.7719 14.1982C11.5122 13.1355 9.94914 12.4229 8.36924 12.1825C8.01113 12.1319 7.04634 12.0687 7.01685 12.0982Z" fill="black"/>
<path d="M8.38204 17.1584C7.67846 17.3861 7.16025 18.0018 7.04228 18.744C6.91589 19.5578 7.36248 20.4012 8.1124 20.7681C9.03085 21.2151 10.0673 20.9241 10.6234 20.0638C10.8467 19.7223 10.9352 19.3681 10.9099 18.9042C10.8972 18.5795 10.872 18.4825 10.7414 18.2126C10.4844 17.6813 10.1178 17.3482 9.57855 17.1669C9.24571 17.053 8.72329 17.0488 8.38204 17.1584Z" fill="black"/>
</svg>
