<svg width="50" height="50" viewBox="0 0 50 50" fill="none" xmlns="http://www.w3.org/2000/svg">
<path d="M11.5137 16.9238C10.8887 17.2559 10.5176 17.832 10.4687 18.5449C10.4492 18.8574 10.4785 19.2871 10.5469 19.4922C10.6445 19.8047 11.9336 21.1426 17.1777 26.3965C21.5332 30.7617 23.8086 32.9785 24.082 33.1055C24.5703 33.3496 25.3808 33.3594 25.8594 33.1348C26.0937 33.0371 28.5449 30.6543 32.5976 26.6211C37.4805 21.748 39.0234 20.1465 39.209 19.7852C40.0879 18.0273 38.3105 16.1914 36.5234 17.002C36.1914 17.1484 34.7656 18.5059 30.5371 22.7344L25 28.2715L19.3555 22.6367C15.459 18.7305 13.6133 16.9531 13.3594 16.8457C12.8125 16.6211 12.0312 16.6602 11.5137 16.9238Z" fill="#FEC479"/>
</svg>
