<svg width="28" height="28" viewBox="0 0 28 28" fill="none" xmlns="http://www.w3.org/2000/svg">
<g clip-path="url(#clip0_201_5)">
<path d="M13.3813 5.21095C9.82347 5.45352 6.73324 7.80548 5.52386 11.1981C5.33753 11.7113 5.16527 12.425 5.08441 12.9981C5.00355 13.55 4.99652 14.7418 5.06683 15.3008C5.42542 18.1695 7.08832 20.6656 9.59144 22.093C10.168 22.4234 11.061 22.7961 11.2895 22.8031C11.4688 22.8066 11.62 22.7328 11.6973 22.6027C11.7606 22.4973 11.7641 22.427 11.7535 21.6641C11.75 21.2106 11.743 20.8344 11.7395 20.8344C11.736 20.8309 11.6059 20.8484 11.4512 20.8766C10.5266 21.0277 9.70394 20.8203 9.18011 20.2965C8.97621 20.0926 8.91292 19.9941 8.70902 19.5723C8.37855 18.8832 8.18519 18.6195 7.81253 18.3488C7.53831 18.152 7.39066 18.0043 7.39066 17.9305C7.39066 17.7547 7.81605 17.6949 8.15355 17.825C8.593 17.9902 8.8848 18.2434 9.20472 18.732C9.64769 19.4035 10.2032 19.7024 10.9098 19.6496C11.1805 19.6285 11.7289 19.4774 11.7711 19.4106C11.7817 19.3895 11.8168 19.277 11.8414 19.1609C11.9082 18.8797 12.0805 18.5246 12.2282 18.3594C12.3688 18.2012 12.3828 18.2117 11.9258 18.1484C11.5637 18.0992 10.9344 17.9375 10.6321 17.818C9.35941 17.3152 8.62464 16.3766 8.35042 14.9035C8.26253 14.4324 8.26253 13.2758 8.35042 12.9102C8.47699 12.3863 8.71253 11.9082 9.03597 11.5109L9.18714 11.3246L9.13441 11.1594C8.9516 10.5934 8.97269 9.8586 9.19066 9.17657C9.26097 8.96212 9.27503 8.94102 9.3805 8.91993C9.75667 8.84962 10.618 9.15899 11.4055 9.64415L11.75 9.8586L12.0559 9.78829C12.7731 9.62306 13.1035 9.5879 14 9.5879C14.9 9.5879 15.227 9.62306 15.9442 9.78829L16.2535 9.8586L16.5243 9.68985C17.0621 9.35235 17.593 9.10274 17.9551 9.01134C18.2539 8.93751 18.5141 8.90235 18.6266 8.92345C18.725 8.94102 18.7426 8.96563 18.8094 9.17657C19.0098 9.80235 19.045 10.5969 18.8903 11.082L18.8164 11.3106L18.8868 11.3984C19.2313 11.8238 19.502 12.3441 19.6321 12.8363C19.7235 13.1809 19.7586 14.0598 19.6989 14.552C19.4387 16.6895 18.268 17.8391 16.0391 18.1484C15.6172 18.2047 15.6243 18.2012 15.7473 18.3348C15.909 18.5035 16.0637 18.8059 16.1516 19.1188C16.2219 19.3789 16.2289 19.4914 16.2465 20.9785C16.2711 22.7082 16.2641 22.6731 16.4785 22.7609C16.6438 22.8313 16.8371 22.8066 17.1817 22.6695C18.4051 22.1949 19.3684 21.5762 20.2895 20.6691C21.7555 19.2277 22.6766 17.3574 22.9332 15.3008C23.0036 14.7418 22.9965 13.55 22.9157 12.9981C22.3075 8.71251 18.8692 5.50626 14.5731 5.21095C14.0071 5.17227 13.9578 5.17227 13.3813 5.21095Z" fill="black"/>
</g>
<defs>
<clipPath id="clip0_201_5">
<rect width="18" height="18" fill="white" transform="translate(5 5)"/>
</clipPath>
</defs>
</svg>
