<svg width="32" height="32" viewBox="0 0 32 32" fill="none" xmlns="http://www.w3.org/2000/svg">
<path d="M4.77612 4.07027C3.9267 4.38163 3.71435 6.16946 4.4415 6.94284L4.67316 7.1839H15.9987C27.0991 7.1839 27.3308 7.17385 27.5109 6.98302C27.7748 6.71183 28 6.1092 28 5.64717C28 5.12489 27.7941 4.53229 27.5045 4.26111L27.26 4.02005L16.1274 3.99996C10.0013 3.99996 4.89839 4.0301 4.77612 4.07027Z" fill="black"/>
<path d="M4.77612 14.4784C3.9267 14.7897 3.71435 16.5775 4.4415 17.3509L4.67316 17.592H15.9987C27.0991 17.592 27.3308 17.5819 27.5109 17.3911C27.7748 17.1199 28 16.5173 28 16.0553C28 15.533 27.7941 14.9404 27.5045 14.6692L27.26 14.4281L16.1274 14.408C10.0013 14.408 4.89839 14.4382 4.77612 14.4784Z" fill="black"/>
<path d="M4.77612 24.8864C3.9267 25.1977 3.71435 26.9856 4.4415 27.7589L4.67316 28H15.9987C27.0991 28 27.3308 27.99 27.5109 27.7991C27.7748 27.5279 28 26.9253 28 26.4633C28 25.941 27.7941 25.3484 27.5045 25.0772L27.26 24.8362L16.1274 24.8161C10.0013 24.8161 4.89839 24.8462 4.77612 24.8864Z" fill="black"/>
</svg>
