<svg width="28" height="28" viewBox="0 0 28 28" fill="none" xmlns="http://www.w3.org/2000/svg">
<g clip-path="url(#clip0_518_2)">
<path d="M14 4.66666C14.9975 4.66666 16.0207 4.69232 17.0124 4.73432L18.1837 4.79032L19.3049 4.85682L20.3549 4.92799L21.3139 5.00266C22.3546 5.08231 23.3339 5.52643 24.0795 6.25687C24.8251 6.98731 25.2892 7.95729 25.3902 8.99616L25.4369 9.49199L25.5244 10.5537C25.606 11.6538 25.6667 12.8532 25.6667 14C25.6667 15.1468 25.606 16.3462 25.5244 17.4463L25.4369 18.508C25.4217 18.6783 25.4065 18.8428 25.3902 19.0038C25.2892 20.0429 24.8249 21.013 24.079 21.7435C23.3332 22.4739 22.3536 22.9179 21.3127 22.9973L20.356 23.0708L19.306 23.1432L18.1837 23.2097L17.0124 23.2657C16.0088 23.3093 15.0045 23.3318 14 23.3333C12.9956 23.3318 11.9912 23.3093 10.9877 23.2657L9.81637 23.2097L8.69521 23.1432L7.64521 23.0708L6.68621 22.9973C5.64548 22.9177 4.66618 22.4736 3.92059 21.7431C3.175 21.0127 2.71088 20.0427 2.60987 19.0038L2.56321 18.508L2.47571 17.4463C2.3865 16.2997 2.33903 15.1501 2.33337 14C2.33337 12.8532 2.39404 11.6538 2.47571 10.5537L2.56321 9.49199C2.57837 9.32166 2.59354 9.15716 2.60987 8.99616C2.71084 7.95747 3.17479 6.98764 3.92015 6.25722C4.6655 5.52681 5.64452 5.08258 6.68504 5.00266L7.64287 4.92799L8.69287 4.85682L9.81521 4.79032L10.9865 4.73432C11.9905 4.69073 12.9952 4.66817 14 4.66666ZM14 6.99999C13.0375 6.99999 12.047 7.02566 11.0834 7.06532L9.94237 7.12016L8.84687 7.18432L7.81787 7.25432L6.87521 7.32782C6.37976 7.36298 5.91276 7.57241 5.55698 7.919C5.20121 8.2656 4.97963 8.72696 4.93154 9.22132C4.79504 10.6318 4.66671 12.3877 4.66671 14C4.66671 15.6123 4.79504 17.3682 4.93154 18.7787C5.03071 19.796 5.83804 20.587 6.87521 20.6722L7.81787 20.7445L8.84687 20.8145L9.94237 20.8798L11.0834 20.9347C12.047 20.9743 13.0375 21 14 21C14.9625 21 15.953 20.9743 16.9167 20.9347L18.0577 20.8798L19.1532 20.8157L20.1822 20.7457L21.1249 20.6722C21.6203 20.637 22.0873 20.4276 22.4431 20.081C22.7989 19.7344 23.0204 19.273 23.0685 18.7787C23.205 17.3682 23.3334 15.6123 23.3334 14C23.3334 12.3877 23.205 10.6318 23.0685 9.22132C23.0204 8.72696 22.7989 8.2656 22.4431 7.919C22.0873 7.57241 21.6203 7.36298 21.1249 7.32782L20.1822 7.25549L19.1532 7.18549L18.0577 7.12016L16.9167 7.06532C15.945 7.02352 14.9726 7.00173 14 6.99999ZM11.6667 11.1708C11.6666 11.0568 11.6944 10.9445 11.7476 10.8436C11.8009 10.7428 11.8779 10.6565 11.9721 10.5922C12.0663 10.5279 12.1747 10.4876 12.288 10.4748C12.4013 10.462 12.516 10.477 12.6222 10.5187L12.7167 10.5653L17.6167 13.3933C17.7143 13.4496 17.7968 13.5286 17.8573 13.6237C17.9178 13.7187 17.9545 13.8269 17.9643 13.9391C17.974 14.0514 17.9565 14.1643 17.9132 14.2683C17.87 14.3723 17.8023 14.4644 17.7159 14.5367L17.6167 14.6067L12.7167 17.4358C12.618 17.493 12.5067 17.5252 12.3927 17.5295C12.2787 17.5339 12.1653 17.5103 12.0625 17.4609C11.9597 17.4114 11.8705 17.3376 11.8027 17.2458C11.735 17.154 11.6907 17.047 11.6737 16.9342L11.6667 16.8292V11.1708Z" fill="black"/>
</g>
<defs>
<clipPath id="clip0_518_2">
<rect width="28" height="28" fill="white"/>
</clipPath>
</defs>
</svg>
